# xmcd
#
# Track frame offsets:
#	150
#	10927
#	22650
#	44561
#	59070
#	73041
#	94037
#	109556
#	123542
#	148991
#	163739
#	186863
#
# Disc length: 2669 seconds
#
# Revision: 1
# Processed by: cddbd v1.5.1PL2 Copyright (c) Steve Scherf et al.
# Submitted via: audiograbber 1.83.01
#
DISCID=aa0a6b0c
DTITLE=Betty's Blues - Paying Homage
DYEAR=1999
DGENRE=
TTITLE0=Let the good times roll
TTITLE1=Blueberry Hill
TTITLE2=Georgia on my mind
TTITLE3=Blue Light Boogie
TTITLE4=Ain't nobody here but us chickens
TTITLE5=Good morning heartache
TTITLE6=Choo Choo Ch'Boogie
TTITLE7=Walking After Midnight
TTITLE8=God bless the child
TTITLE9=Caldonia
TTITLE10=Bill's Boogie Breakdown
TTITLE11=Buena Sera
EXTD=
EXTT0=
EXTT1=
EXTT2=
EXTT3=
EXTT4=
EXTT5=
EXTT6=
EXTT7=
EXTT8=
EXTT9=
EXTT10=
EXTT11=
PLAYORDER=
